# xmcd
#
# Track frame offsets: 
#        150
#        17605
#        34780
#        52466
#        70381
#        85318
#        104176
#        119566
#        138996
#        154633
#        171518
#        187263
#        203419
#        222310
#        239984
#
# Disc length: 3482 seconds
#
# Revision: 1
# Processed by: cddbd v1.5.2PL0 Copyright (c) Steve Scherf et al.
# Submitted via: ExactAudioCopyFreeDBPlugin 1.0
#
DISCID=f00d980f
DTITLE=LeAnn Rimes - Whatever We Wanna
DYEAR=2006
DGENRE=Country
TTITLE0=Satisfied
TTITLE1=And It Feels Like
TTITLE2=For The First Time
TTITLE3=Save Myself
TTITLE4=A Little More Time
TTITLE5=Rumour 'bout A Revolution
TTITLE6=Destructive
TTITLE7=Strong
TTITLE8=Whatever We Wanna
TTITLE9=Everybodys' Someone
TTITLE10=Headphones
TTITLE11=Long Night
TTITLE12=This Life
TTITLE13=Break Me Down
TTITLE14=Some People
EXTD=
EXTT0=
EXTT1=
EXTT2=
EXTT3=
EXTT4=
EXTT5=
EXTT6=
EXTT7=
EXTT8=
EXTT9=
EXTT10=
EXTT11=
EXTT12=
EXTT13=
EXTT14=
PLAYORDER=
